<?xml version="1.0" encoding="UTF-8"?>
<svg width="32" height="32" viewBox="0 0 32 32" fill="none" xmlns="http://www.w3.org/2000/svg">
  <rect width="32" height="32" rx="8" fill="#18181B"/>
  <path d="M16 8C13.8828 8 12.1667 9.71614 12.1667 11.8333C12.1667 13.9505 13.8828 15.6667 16 15.6667C18.1172 15.6667 19.8333 13.9505 19.8333 11.8333C19.8333 9.71614 18.1172 8 16 8Z" fill="white"/>
  <path d="M24 24H8V22.3333C8 19.3878 10.3878 17 13.3333 17H18.6667C21.6122 17 24 19.3878 24 22.3333V24Z" fill="white"/>
  <path d="M10.6667 11.8333C10.6667 8.88781 13.0545 6.5 16 6.5C18.9455 6.5 21.3333 8.88781 21.3333 11.8333C21.3333 14.7789 18.9455 17.1667 16 17.1667C13.0545 17.1667 10.6667 14.7789 10.6667 11.8333Z" stroke="white" stroke-width="1"/>
</svg> 