<?xml version="1.0" encoding="UTF-8"?>
<svg width="192" height="192" viewBox="0 0 192 192" fill="none" xmlns="http://www.w3.org/2000/svg">
  <rect width="192" height="192" rx="48" fill="#18181B"/>
  <path d="M96 48C83.2975 48 73 58.2975 73 71C73 83.7025 83.2975 94 96 94C108.702 94 119 83.7025 119 71C119 58.2975 108.702 48 96 48Z" fill="white"/>
  <path d="M144 144H48V134C48 116.327 62.327 102 80 102H112C129.673 102 144 116.327 144 134V144Z" fill="white"/>
  <path d="M64 71C64 53.3269 78.3269 39 96 39C113.673 39 128 53.3269 128 71C128 88.6731 113.673 103 96 103C78.3269 103 64 88.6731 64 71Z" stroke="white" stroke-width="4"/>
</svg> 